<?xml version="1.0" standalone="no"?>
<!DOCTYPE svg PUBLIC "-//W3C//DTD SVG 20010904//EN"
 "http://www.w3.org/TR/2001/REC-SVG-20010904/DTD/svg10.dtd">
<svg version="1.0" xmlns="http://www.w3.org/2000/svg"
 width="114.000000pt" height="114.000000pt" viewBox="0 0 114.000000 114.000000"
 preserveAspectRatio="xMidYMid meet">
<metadata>
Created by potrace 1.14, written by Peter Selinger 2001-2017
</metadata>
<g transform="translate(0.000000,114.000000) scale(0.100000,-0.100000)"
fill="#000000" stroke="none">
<path d="M288 1059 c-17 -9 -18 -43 -18 -490 l0 -479 27 -11 c41 -15 488 -8
505 9 10 10 14 114 16 485 2 437 1 473 -15 484 -21 16 -488 18 -515 2z m312
-13 c0 -2 3 -11 6 -20 5 -14 -4 -16 -58 -16 -70 0 -84 6 -67 27 10 12 119 20
119 9z m-130 -506 c23 -45 31 -50 27 -17 -2 19 2 22 36 21 25 -1 37 3 37 12 0
13 10 17 27 12 4 -2 8 -25 8 -51 1 -38 -3 -47 -15 -45 -8 2 -17 17 -19 33 l-4
30 -6 -30 c-5 -26 -11 -30 -41 -31 -19 -1 -41 3 -48 8 -6 6 -26 8 -43 4 -28
-5 -30 -4 -23 17 9 29 33 77 39 77 3 0 14 -18 25 -40z m198 -2 c17 -17 15 -43
-4 -59 -31 -26 -70 25 -44 56 15 18 32 19 48 3z m5 -385 c-67 -2 -179 -2 -250
0 -70 1 -15 3 122 3 138 0 195 -2 128 -3z m-58 -33 c0 -12 -16 -16 -69 -18
-69 -3 -95 6 -81 28 4 7 33 10 78 8 56 -2 72 -6 72 -18z"/>
<path d="M635 521 c-3 -5 -1 -12 5 -16 5 -3 10 1 10 9 0 18 -6 21 -15 7z"/>
<path d="M478 53 c34 -2 90 -2 125 0 34 2 6 3 -63 3 -69 0 -97 -1 -62 -3z"/>
</g>
</svg>
